<mxfile host="app.diagrams.net" agent="Mozilla/5.0 (Windows NT 10.0; Win64; x64) AppleWebKit/537.36 (KHTML, like Gecko) Chrome/136.0.0.0 Safari/537.36" version="27.0.6">
  <diagram id="C5RBs43oDa-KdzZeNtuy" name="Page-1">
    <mxGraphModel dx="1188" dy="1827" grid="1" gridSize="10" guides="1" tooltips="1" connect="1" arrows="1" fold="1" page="1" pageScale="1" pageWidth="827" pageHeight="1169" math="0" shadow="0">
      <root>
        <mxCell id="WIyWlLk6GJQsqaUBKTNV-0" />
        <mxCell id="WIyWlLk6GJQsqaUBKTNV-1" parent="WIyWlLk6GJQsqaUBKTNV-0" />
        <mxCell id="zkfFHV4jXpPFQw0GAbJ--0" value="Producto" style="swimlane;fontStyle=2;align=center;verticalAlign=top;childLayout=stackLayout;horizontal=1;startSize=26;horizontalStack=0;resizeParent=1;resizeLast=0;collapsible=1;marginBottom=0;rounded=0;shadow=0;strokeWidth=1;" parent="WIyWlLk6GJQsqaUBKTNV-1" vertex="1">
          <mxGeometry x="150" y="100" width="230" height="240" as="geometry">
            <mxRectangle x="230" y="140" width="160" height="26" as="alternateBounds" />
          </mxGeometry>
        </mxCell>
        <mxCell id="zkfFHV4jXpPFQw0GAbJ--2" value="- precioBase: double&#xa;- nombreProducto: String&#xa;- stock: int" style="text;align=left;verticalAlign=top;spacingLeft=4;spacingRight=4;overflow=hidden;rotatable=0;points=[[0,0.5],[1,0.5]];portConstraint=eastwest;rounded=0;shadow=0;html=0;" parent="zkfFHV4jXpPFQw0GAbJ--0" vertex="1">
          <mxGeometry y="26" width="230" height="64" as="geometry" />
        </mxCell>
        <mxCell id="zkfFHV4jXpPFQw0GAbJ--4" value="" style="line;html=1;strokeWidth=1;align=left;verticalAlign=middle;spacingTop=-1;spacingLeft=3;spacingRight=3;rotatable=0;labelPosition=right;points=[];portConstraint=eastwest;" parent="zkfFHV4jXpPFQw0GAbJ--0" vertex="1">
          <mxGeometry y="90" width="230" height="8" as="geometry" />
        </mxCell>
        <mxCell id="vys1Lf1euMN_hq-L1kBy-1" value="+getPrecioBase(): double&#xa;+getNombre(): String&#xa;+new(double String int): Producto&#xa;+getStock(): int&#xa;+hayStockDisponible():Boolean&#xa;+decrementarStock(): void&#xa;+facturar(): double&#xa;&#xa;+ getMontoFinal(): double" style="text;align=left;verticalAlign=top;spacingLeft=4;spacingRight=4;overflow=hidden;rotatable=0;points=[[0,0.5],[1,0.5]];portConstraint=eastwest;rounded=0;shadow=0;html=0;fontStyle=0" parent="zkfFHV4jXpPFQw0GAbJ--0" vertex="1">
          <mxGeometry y="98" width="230" height="142" as="geometry" />
        </mxCell>
        <mxCell id="vys1Lf1euMN_hq-L1kBy-6" value="&lt;p style=&quot;margin:0px;margin-top:4px;text-align:center;&quot;&gt;&lt;i&gt;&amp;lt;&amp;lt;facturable&amp;gt;&amp;gt;&lt;/i&gt;&lt;br&gt;&lt;b&gt;iFacturable&lt;/b&gt;&lt;/p&gt;&lt;hr size=&quot;1&quot; style=&quot;border-style:solid;&quot;&gt;&lt;p style=&quot;margin:0px;margin-left:4px;&quot;&gt;+ facturar(): double&lt;br&gt;&lt;br&gt;&lt;/p&gt;&lt;hr size=&quot;1&quot; style=&quot;border-style:solid;&quot;&gt;&lt;p style=&quot;margin:0px;margin-left:4px;&quot;&gt;&lt;br&gt;&lt;/p&gt;" style="verticalAlign=top;align=left;overflow=fill;html=1;whiteSpace=wrap;" parent="WIyWlLk6GJQsqaUBKTNV-1" vertex="1">
          <mxGeometry x="150" y="-60" width="190" height="80" as="geometry" />
        </mxCell>
        <mxCell id="vys1Lf1euMN_hq-L1kBy-15" value="Factura" style="swimlane;fontStyle=1;align=center;verticalAlign=top;childLayout=stackLayout;horizontal=1;startSize=26;horizontalStack=0;resizeParent=1;resizeParentMax=0;resizeLast=0;collapsible=1;marginBottom=0;whiteSpace=wrap;html=1;" parent="WIyWlLk6GJQsqaUBKTNV-1" vertex="1">
          <mxGeometry x="540" y="160" width="210" height="170" as="geometry" />
        </mxCell>
        <mxCell id="vys1Lf1euMN_hq-L1kBy-16" value="- montoTotal: double&lt;div&gt;- tipoDeFactura: String&lt;/div&gt;" style="text;strokeColor=none;fillColor=none;align=left;verticalAlign=top;spacingLeft=4;spacingRight=4;overflow=hidden;rotatable=0;points=[[0,0.5],[1,0.5]];portConstraint=eastwest;whiteSpace=wrap;html=1;" parent="vys1Lf1euMN_hq-L1kBy-15" vertex="1">
          <mxGeometry y="26" width="210" height="54" as="geometry" />
        </mxCell>
        <mxCell id="vys1Lf1euMN_hq-L1kBy-17" value="" style="line;strokeWidth=1;fillColor=none;align=left;verticalAlign=middle;spacingTop=-1;spacingLeft=3;spacingRight=3;rotatable=0;labelPosition=right;points=[];portConstraint=eastwest;strokeColor=inherit;" parent="vys1Lf1euMN_hq-L1kBy-15" vertex="1">
          <mxGeometry y="80" width="210" height="8" as="geometry" />
        </mxCell>
        <mxCell id="vys1Lf1euMN_hq-L1kBy-18" value="+getMontoTotal(): double&lt;div&gt;+getTipo(): String&lt;/div&gt;" style="text;strokeColor=none;fillColor=none;align=left;verticalAlign=top;spacingLeft=4;spacingRight=4;overflow=hidden;rotatable=0;points=[[0,0.5],[1,0.5]];portConstraint=eastwest;whiteSpace=wrap;html=1;" parent="vys1Lf1euMN_hq-L1kBy-15" vertex="1">
          <mxGeometry y="88" width="210" height="82" as="geometry" />
        </mxCell>
        <mxCell id="vys1Lf1euMN_hq-L1kBy-19" value="Use" style="endArrow=open;endSize=12;dashed=1;html=1;rounded=0;entryX=0.57;entryY=1.044;entryDx=0;entryDy=0;entryPerimeter=0;exitX=0.478;exitY=0;exitDx=0;exitDy=0;exitPerimeter=0;" parent="WIyWlLk6GJQsqaUBKTNV-1" source="zkfFHV4jXpPFQw0GAbJ--0" target="vys1Lf1euMN_hq-L1kBy-6" edge="1">
          <mxGeometry width="160" relative="1" as="geometry">
            <mxPoint x="210" y="70" as="sourcePoint" />
            <mxPoint x="370" y="70" as="targetPoint" />
          </mxGeometry>
        </mxCell>
        <mxCell id="vys1Lf1euMN_hq-L1kBy-22" value="Extends" style="endArrow=block;endSize=16;endFill=0;html=1;rounded=0;entryX=0.249;entryY=1.035;entryDx=0;entryDy=0;entryPerimeter=0;" parent="WIyWlLk6GJQsqaUBKTNV-1" edge="1">
          <mxGeometry width="160" relative="1" as="geometry">
            <mxPoint x="110" y="427.48" as="sourcePoint" />
            <mxPoint x="187.26999999999998" y="330" as="targetPoint" />
          </mxGeometry>
        </mxCell>
        <mxCell id="vys1Lf1euMN_hq-L1kBy-23" value="Extends" style="endArrow=block;endSize=16;endFill=0;html=1;rounded=0;entryX=0.249;entryY=1.035;entryDx=0;entryDy=0;entryPerimeter=0;" parent="WIyWlLk6GJQsqaUBKTNV-1" edge="1">
          <mxGeometry width="160" relative="1" as="geometry">
            <mxPoint x="380" y="420" as="sourcePoint" />
            <mxPoint x="320" y="330" as="targetPoint" />
          </mxGeometry>
        </mxCell>
        <mxCell id="vys1Lf1euMN_hq-L1kBy-32" value="ProductoCooperativa&lt;span style=&quot;color: rgba(0, 0, 0, 0); font-family: monospace; font-size: 0px; font-weight: 400; text-align: start; text-wrap-mode: nowrap;&quot;&gt;%3CmxGraphModel%3E%3Croot%3E%3CmxCell%20id%3D%220%22%2F%3E%3CmxCell%20id%3D%221%22%20parent%3D%220%22%2F%3E%3CmxCell%20id%3D%222%22%20value%3D%22Producto%22%20style%3D%22swimlane%3BfontStyle%3D2%3Balign%3Dcenter%3BverticalAlign%3Dtop%3BchildLayout%3DstackLayout%3Bhorizontal%3D1%3BstartSize%3D26%3BhorizontalStack%3D0%3BresizeParent%3D1%3BresizeLast%3D0%3Bcollapsible%3D1%3BmarginBottom%3D0%3Brounded%3D0%3Bshadow%3D0%3BstrokeWidth%3D1%3B%22%20vertex%3D%221%22%20parent%3D%221%22%3E%3CmxGeometry%20x%3D%22150%22%20y%3D%22120%22%20width%3D%22230%22%20height%3D%22210%22%20as%3D%22geometry%22%3E%3CmxRectangle%20x%3D%22230%22%20y%3D%22140%22%20width%3D%22160%22%20height%3D%2226%22%20as%3D%22alternateBounds%22%2F%3E%3C%2FmxGeometry%3E%3C%2FmxCell%3E%3CmxCell%20id%3D%223%22%20value%3D%22-%20precioBase%3A%20double%26%2310%3B-%20nombreProducto%3A%20String%26%2310%3B-%20stock%3A%20int%22%20style%3D%22text%3Balign%3Dleft%3BverticalAlign%3Dtop%3BspacingLeft%3D4%3BspacingRight%3D4%3Boverflow%3Dhidden%3Brotatable%3D0%3Bpoints%3D%5B%5B0%2C0.5%5D%2C%5B1%2C0.5%5D%5D%3BportConstraint%3Deastwest%3Brounded%3D0%3Bshadow%3D0%3Bhtml%3D0%3B%22%20vertex%3D%221%22%20parent%3D%222%22%3E%3CmxGeometry%20y%3D%2226%22%20width%3D%22230%22%20height%3D%2264%22%20as%3D%22geometry%22%2F%3E%3C%2FmxCell%3E%3CmxCell%20id%3D%224%22%20value%3D%22%22%20style%3D%22line%3Bhtml%3D1%3BstrokeWidth%3D1%3Balign%3Dleft%3BverticalAlign%3Dmiddle%3BspacingTop%3D-1%3BspacingLeft%3D3%3BspacingRight%3D3%3Brotatable%3D0%3BlabelPosition%3Dright%3Bpoints%3D%5B%5D%3BportConstraint%3Deastwest%3B%22%20vertex%3D%221%22%20parent%3D%222%22%3E%3CmxGeometry%20y%3D%2290%22%20width%3D%22230%22%20height%3D%228%22%20as%3D%22geometry%22%2F%3E%3C%2FmxCell%3E%3CmxCell%20id%3D%225%22%20value%3D%22%2BgetPrecioBase()%3A%20double%26%2310%3B%2BgetNombre()%3A%20String%26%2310%3B%2Bnew(double%20String)%3A%20Producto%26%2310%3B%2BgetStock()%3A%20int%26%2310%3B%2BregistrarVenta()%3A%20double%26%2310%3B%26%2310%3B%2B%20getMontoFinal()%3A%20double%22%20style%3D%22text%3Balign%3Dleft%3BverticalAlign%3Dtop%3BspacingLeft%3D4%3BspacingRight%3D4%3Boverflow%3Dhidden%3Brotatable%3D0%3Bpoints%3D%5B%5B0%2C0.5%5D%2C%5B1%2C0.5%5D%5D%3BportConstraint%3Deastwest%3Brounded%3D0%3Bshadow%3D0%3Bhtml%3D0%3BfontStyle%3D2%22%20vertex%3D%221%22%20parent%3D%222%22%3E%3CmxGeometry%20y%3D%2298%22%20width%3D%22230%22%20height%3D%22112%22%20as%3D%22geometry%22%2F%3E%3C%2FmxCell%3E%3C%2Froot%3E%3C%2FmxGraphModel%3E&lt;/span&gt;" style="swimlane;fontStyle=1;align=center;verticalAlign=top;childLayout=stackLayout;horizontal=1;startSize=26;horizontalStack=0;resizeParent=1;resizeParentMax=0;resizeLast=0;collapsible=1;marginBottom=0;whiteSpace=wrap;html=1;" parent="WIyWlLk6GJQsqaUBKTNV-1" vertex="1">
          <mxGeometry x="340" y="420" width="200" height="110" as="geometry" />
        </mxCell>
        <mxCell id="vys1Lf1euMN_hq-L1kBy-33" value="- descuentoIVA(): int" style="text;strokeColor=none;fillColor=none;align=left;verticalAlign=top;spacingLeft=4;spacingRight=4;overflow=hidden;rotatable=0;points=[[0,0.5],[1,0.5]];portConstraint=eastwest;whiteSpace=wrap;html=1;" parent="vys1Lf1euMN_hq-L1kBy-32" vertex="1">
          <mxGeometry y="26" width="200" height="26" as="geometry" />
        </mxCell>
        <mxCell id="vys1Lf1euMN_hq-L1kBy-34" value="" style="line;strokeWidth=1;fillColor=none;align=left;verticalAlign=middle;spacingTop=-1;spacingLeft=3;spacingRight=3;rotatable=0;labelPosition=right;points=[];portConstraint=eastwest;strokeColor=inherit;" parent="vys1Lf1euMN_hq-L1kBy-32" vertex="1">
          <mxGeometry y="52" width="200" height="8" as="geometry" />
        </mxCell>
        <mxCell id="vys1Lf1euMN_hq-L1kBy-35" value="&lt;div&gt;&lt;span style=&quot;background-color: transparent; color: light-dark(rgb(0, 0, 0), rgb(255, 255, 255));&quot;&gt;+getMontoFinal(): double&lt;/span&gt;&lt;/div&gt;&lt;div&gt;+aplicarDescuento(): double&lt;/div&gt;" style="text;strokeColor=none;fillColor=none;align=left;verticalAlign=top;spacingLeft=4;spacingRight=4;overflow=hidden;rotatable=0;points=[[0,0.5],[1,0.5]];portConstraint=eastwest;whiteSpace=wrap;html=1;" parent="vys1Lf1euMN_hq-L1kBy-32" vertex="1">
          <mxGeometry y="60" width="200" height="50" as="geometry" />
        </mxCell>
        <mxCell id="vys1Lf1euMN_hq-L1kBy-36" value="ProductoEmpresaTradicional&lt;span style=&quot;color: rgba(0, 0, 0, 0); font-family: monospace; font-size: 0px; font-weight: 400; text-align: start; text-wrap-mode: nowrap;&quot;&gt;%3CmxGraphModel%3E%3Croot%3E%3CmxCell%20id%3D%220%22%2F%3E%3CmxCell%20id%3D%221%22%20parent%3D%220%22%2F%3E%3CmxCell%20id%3D%222%22%20value%3D%22Producto%22%20style%3D%22swimlane%3BfontStyle%3D2%3Balign%3Dcenter%3BverticalAlign%3Dtop%3BchildLayout%3DstackLayout%3Bhorizontal%3D1%3BstartSize%3D26%3BhorizontalStack%3D0%3BresizeParent%3D1%3BresizeLast%3D0%3Bcollapsible%3D1%3BmarginBottom%3D0%3Brounded%3D0%3Bshadow%3D0%3BstrokeWidth%3D1%3B%22%20vertex%3D%221%22%20parent%3D%221%22%3E%3CmxGeometry%20x%3D%22150%22%20y%3D%22120%22%20width%3D%22230%22%20height%3D%22210%22%20as%3D%22geometry%22%3E%3CmxRectangle%20x%3D%22230%22%20y%3D%22140%22%20width%3D%22160%22%20height%3D%2226%22%20as%3D%22alternateBounds%22%2F%3E%3C%2FmxGeometry%3E%3C%2FmxCell%3E%3CmxCell%20id%3D%223%22%20value%3D%22-%20precioBase%3A%20double%26%2310%3B-%20nombreProducto%3A%20String%26%2310%3B-%20stock%3A%20int%22%20style%3D%22text%3Balign%3Dleft%3BverticalAlign%3Dtop%3BspacingLeft%3D4%3BspacingRight%3D4%3Boverflow%3Dhidden%3Brotatable%3D0%3Bpoints%3D%5B%5B0%2C0.5%5D%2C%5B1%2C0.5%5D%5D%3BportConstraint%3Deastwest%3Brounded%3D0%3Bshadow%3D0%3Bhtml%3D0%3B%22%20vertex%3D%221%22%20parent%3D%222%22%3E%3CmxGeometry%20y%3D%2226%22%20width%3D%22230%22%20height%3D%2264%22%20as%3D%22geometry%22%2F%3E%3C%2FmxCell%3E%3CmxCell%20id%3D%224%22%20value%3D%22%22%20style%3D%22line%3Bhtml%3D1%3BstrokeWidth%3D1%3Balign%3Dleft%3BverticalAlign%3Dmiddle%3BspacingTop%3D-1%3BspacingLeft%3D3%3BspacingRight%3D3%3Brotatable%3D0%3BlabelPosition%3Dright%3Bpoints%3D%5B%5D%3BportConstraint%3Deastwest%3B%22%20vertex%3D%221%22%20parent%3D%222%22%3E%3CmxGeometry%20y%3D%2290%22%20width%3D%22230%22%20height%3D%228%22%20as%3D%22geometry%22%2F%3E%3C%2FmxCell%3E%3CmxCell%20id%3D%225%22%20value%3D%22%2BgetPrecioBase()%3A%20double%26%2310%3B%2BgetNombre()%3A%20String%26%2310%3B%2Bnew(double%20String)%3A%20Producto%26%2310%3B%2BgetStock()%3A%20int%26%2310%3B%2BregistrarVenta()%3A%20double%26%2310%3B%26%2310%3B%2B%20getMontoFinal()%3A%20double%22%20style%3D%22text%3Balign%3Dleft%3BverticalAlign%3Dtop%3BspacingLeft%3D4%3BspacingRight%3D4%3Boverflow%3Dhidden%3Brotatable%3D0%3Bpoints%3D%5B%5B0%2C0.5%5D%2C%5B1%2C0.5%5D%5D%3BportConstraint%3Deastwest%3Brounded%3D0%3Bshadow%3D0%3Bhtml%3D0%3BfontStyle%3D2%22%20vertex%3D%221%22%20parent%3D%222%22%3E%3CmxGeometry%20y%3D%2298%22%20width%3D%22230%22%20height%3D%22112%22%20as%3D%22geometry%22%2F%3E%3C%2FmxCell%3E%3C%2Froot%3E%3C%2FmxGraphModel%&lt;/span&gt;" style="swimlane;fontStyle=1;align=center;verticalAlign=top;childLayout=stackLayout;horizontal=1;startSize=26;horizontalStack=0;resizeParent=1;resizeParentMax=0;resizeLast=0;collapsible=1;marginBottom=0;whiteSpace=wrap;html=1;" parent="WIyWlLk6GJQsqaUBKTNV-1" vertex="1">
          <mxGeometry x="50" y="420" width="200" height="60" as="geometry" />
        </mxCell>
        <mxCell id="vys1Lf1euMN_hq-L1kBy-38" value="" style="line;strokeWidth=1;fillColor=none;align=left;verticalAlign=middle;spacingTop=-1;spacingLeft=3;spacingRight=3;rotatable=0;labelPosition=right;points=[];portConstraint=eastwest;strokeColor=inherit;" parent="vys1Lf1euMN_hq-L1kBy-36" vertex="1">
          <mxGeometry y="26" width="200" height="8" as="geometry" />
        </mxCell>
        <mxCell id="vys1Lf1euMN_hq-L1kBy-39" value="+getMontoFinal(): double" style="text;strokeColor=none;fillColor=none;align=left;verticalAlign=top;spacingLeft=4;spacingRight=4;overflow=hidden;rotatable=0;points=[[0,0.5],[1,0.5]];portConstraint=eastwest;whiteSpace=wrap;html=1;" parent="vys1Lf1euMN_hq-L1kBy-36" vertex="1">
          <mxGeometry y="34" width="200" height="26" as="geometry" />
        </mxCell>
        <mxCell id="vys1Lf1euMN_hq-L1kBy-40" value="Caja" style="swimlane;fontStyle=1;align=center;verticalAlign=top;childLayout=stackLayout;horizontal=1;startSize=26;horizontalStack=0;resizeParent=1;resizeParentMax=0;resizeLast=0;collapsible=1;marginBottom=0;whiteSpace=wrap;html=1;" parent="WIyWlLk6GJQsqaUBKTNV-1" vertex="1">
          <mxGeometry x="530" y="-60" width="230" height="116" as="geometry" />
        </mxCell>
        <mxCell id="vys1Lf1euMN_hq-L1kBy-43" value="&lt;div&gt;&lt;span style=&quot;background-color: transparent; color: light-dark(rgb(0, 0, 0), rgb(255, 255, 255));&quot;&gt;+registrarFacturables(): double&lt;/span&gt;&lt;/div&gt;&lt;div&gt;+registrarPago(Factura):double&lt;/div&gt;" style="text;strokeColor=none;fillColor=none;align=left;verticalAlign=top;spacingLeft=4;spacingRight=4;overflow=hidden;rotatable=0;points=[[0,0.5],[1,0.5]];portConstraint=eastwest;whiteSpace=wrap;html=1;" parent="vys1Lf1euMN_hq-L1kBy-40" vertex="1">
          <mxGeometry y="26" width="230" height="90" as="geometry" />
        </mxCell>
        <mxCell id="vys1Lf1euMN_hq-L1kBy-50" value="facturables" style="endArrow=block;endFill=1;html=1;edgeStyle=orthogonalEdgeStyle;align=left;verticalAlign=top;rounded=0;entryX=0;entryY=0.26;entryDx=0;entryDy=0;entryPerimeter=0;" parent="WIyWlLk6GJQsqaUBKTNV-1" target="vys1Lf1euMN_hq-L1kBy-43" edge="1">
          <mxGeometry x="-0.28" y="-10" relative="1" as="geometry">
            <mxPoint x="340" as="sourcePoint" />
            <mxPoint x="500" as="targetPoint" />
            <Array as="points">
              <mxPoint x="360" />
              <mxPoint x="360" y="30" />
              <mxPoint x="460" y="30" />
              <mxPoint x="460" />
            </Array>
            <mxPoint as="offset" />
          </mxGeometry>
        </mxCell>
        <mxCell id="vys1Lf1euMN_hq-L1kBy-51" value="*" style="edgeLabel;resizable=0;html=1;align=left;verticalAlign=bottom;" parent="vys1Lf1euMN_hq-L1kBy-50" connectable="0" vertex="1">
          <mxGeometry x="-1" relative="1" as="geometry" />
        </mxCell>
        <mxCell id="vys1Lf1euMN_hq-L1kBy-52" value="1" style="text;html=1;align=center;verticalAlign=middle;resizable=0;points=[];autosize=1;strokeColor=none;fillColor=none;" parent="WIyWlLk6GJQsqaUBKTNV-1" vertex="1">
          <mxGeometry x="495" y="-22" width="30" height="30" as="geometry" />
        </mxCell>
        <mxCell id="vys1Lf1euMN_hq-L1kBy-53" value="Servicio" style="swimlane;fontStyle=1;align=center;verticalAlign=top;childLayout=stackLayout;horizontal=1;startSize=26;horizontalStack=0;resizeParent=1;resizeParentMax=0;resizeLast=0;collapsible=1;marginBottom=0;whiteSpace=wrap;html=1;" parent="WIyWlLk6GJQsqaUBKTNV-1" vertex="1">
          <mxGeometry x="10" y="-320" width="310" height="170" as="geometry" />
        </mxCell>
        <mxCell id="vys1Lf1euMN_hq-L1kBy-54" value="-costoPorUnidadConsumida: double&lt;div&gt;- cantidadDeUnidadesConsumidas: int&lt;/div&gt;&lt;div&gt;-agencia: Agencia&lt;/div&gt;" style="text;strokeColor=none;fillColor=none;align=left;verticalAlign=top;spacingLeft=4;spacingRight=4;overflow=hidden;rotatable=0;points=[[0,0.5],[1,0.5]];portConstraint=eastwest;whiteSpace=wrap;html=1;" parent="vys1Lf1euMN_hq-L1kBy-53" vertex="1">
          <mxGeometry y="26" width="310" height="54" as="geometry" />
        </mxCell>
        <mxCell id="vys1Lf1euMN_hq-L1kBy-55" value="" style="line;strokeWidth=1;fillColor=none;align=left;verticalAlign=middle;spacingTop=-1;spacingLeft=3;spacingRight=3;rotatable=0;labelPosition=right;points=[];portConstraint=eastwest;strokeColor=inherit;" parent="vys1Lf1euMN_hq-L1kBy-53" vertex="1">
          <mxGeometry y="80" width="310" height="8" as="geometry" />
        </mxCell>
        <mxCell id="vys1Lf1euMN_hq-L1kBy-56" value="+getMontoTotalPorConsumoDeServicio(): double&amp;nbsp;&lt;div&gt;+registrarServicio(): void&lt;/div&gt;" style="text;strokeColor=none;fillColor=none;align=left;verticalAlign=top;spacingLeft=4;spacingRight=4;overflow=hidden;rotatable=0;points=[[0,0.5],[1,0.5]];portConstraint=eastwest;whiteSpace=wrap;html=1;" parent="vys1Lf1euMN_hq-L1kBy-53" vertex="1">
          <mxGeometry y="88" width="310" height="82" as="geometry" />
        </mxCell>
        <mxCell id="vys1Lf1euMN_hq-L1kBy-57" value="Impuesto" style="swimlane;fontStyle=1;align=center;verticalAlign=top;childLayout=stackLayout;horizontal=1;startSize=26;horizontalStack=0;resizeParent=1;resizeParentMax=0;resizeLast=0;collapsible=1;marginBottom=0;whiteSpace=wrap;html=1;" parent="WIyWlLk6GJQsqaUBKTNV-1" vertex="1">
          <mxGeometry x="380" y="-320" width="310" height="170" as="geometry" />
        </mxCell>
        <mxCell id="vys1Lf1euMN_hq-L1kBy-58" value="-costoImpuesto: double&lt;div&gt;-agencia: Agencia&lt;/div&gt;" style="text;strokeColor=none;fillColor=none;align=left;verticalAlign=top;spacingLeft=4;spacingRight=4;overflow=hidden;rotatable=0;points=[[0,0.5],[1,0.5]];portConstraint=eastwest;whiteSpace=wrap;html=1;" parent="vys1Lf1euMN_hq-L1kBy-57" vertex="1">
          <mxGeometry y="26" width="310" height="54" as="geometry" />
        </mxCell>
        <mxCell id="vys1Lf1euMN_hq-L1kBy-59" value="" style="line;strokeWidth=1;fillColor=none;align=left;verticalAlign=middle;spacingTop=-1;spacingLeft=3;spacingRight=3;rotatable=0;labelPosition=right;points=[];portConstraint=eastwest;strokeColor=inherit;" parent="vys1Lf1euMN_hq-L1kBy-57" vertex="1">
          <mxGeometry y="80" width="310" height="8" as="geometry" />
        </mxCell>
        <mxCell id="vys1Lf1euMN_hq-L1kBy-60" value="&lt;div&gt;+registrarImpuesto(): void&lt;/div&gt;" style="text;strokeColor=none;fillColor=none;align=left;verticalAlign=top;spacingLeft=4;spacingRight=4;overflow=hidden;rotatable=0;points=[[0,0.5],[1,0.5]];portConstraint=eastwest;whiteSpace=wrap;html=1;" parent="vys1Lf1euMN_hq-L1kBy-57" vertex="1">
          <mxGeometry y="88" width="310" height="82" as="geometry" />
        </mxCell>
        <mxCell id="vys1Lf1euMN_hq-L1kBy-61" value="Use" style="endArrow=open;endSize=12;dashed=1;html=1;rounded=0;exitX=0.738;exitY=1.047;exitDx=0;exitDy=0;exitPerimeter=0;" parent="WIyWlLk6GJQsqaUBKTNV-1" source="vys1Lf1euMN_hq-L1kBy-56" target="vys1Lf1euMN_hq-L1kBy-6" edge="1">
          <mxGeometry width="160" relative="1" as="geometry">
            <mxPoint x="250" y="-74" as="sourcePoint" />
            <mxPoint x="248" y="-150" as="targetPoint" />
          </mxGeometry>
        </mxCell>
        <mxCell id="vys1Lf1euMN_hq-L1kBy-63" value="Use" style="endArrow=open;endSize=12;dashed=1;html=1;rounded=0;exitX=0.13;exitY=1.026;exitDx=0;exitDy=0;exitPerimeter=0;entryX=0.896;entryY=-0.015;entryDx=0;entryDy=0;entryPerimeter=0;" parent="WIyWlLk6GJQsqaUBKTNV-1" source="vys1Lf1euMN_hq-L1kBy-60" target="vys1Lf1euMN_hq-L1kBy-6" edge="1">
          <mxGeometry width="160" relative="1" as="geometry">
            <mxPoint x="330" y="-140" as="sourcePoint" />
            <mxPoint x="334" y="-54" as="targetPoint" />
          </mxGeometry>
        </mxCell>
        <mxCell id="J9aBu4Wg6RiDO15bJq30-0" value="Use" style="endArrow=open;endSize=12;dashed=1;html=1;rounded=0;exitX=0.478;exitY=0;exitDx=0;exitDy=0;exitPerimeter=0;entryX=0.912;entryY=1.038;entryDx=0;entryDy=0;entryPerimeter=0;" edge="1" parent="WIyWlLk6GJQsqaUBKTNV-1" target="J9aBu4Wg6RiDO15bJq30-3">
          <mxGeometry width="160" relative="1" as="geometry">
            <mxPoint x="760" y="-64" as="sourcePoint" />
            <mxPoint x="670" y="-440" as="targetPoint" />
          </mxGeometry>
        </mxCell>
        <mxCell id="J9aBu4Wg6RiDO15bJq30-3" value="&lt;p style=&quot;margin:0px;margin-top:4px;text-align:center;&quot;&gt;&lt;i&gt;&amp;lt;&amp;lt;agencia&amp;gt;&amp;gt;&lt;/i&gt;&lt;br&gt;&lt;b&gt;iAgencia&lt;/b&gt;&lt;/p&gt;&lt;hr size=&quot;1&quot; style=&quot;border-style:solid;&quot;&gt;&lt;p style=&quot;margin:0px;margin-left:4px;&quot;&gt;+ registrarPago(Factura): void&lt;br&gt;&lt;br&gt;&lt;/p&gt;&lt;hr size=&quot;1&quot; style=&quot;border-style:solid;&quot;&gt;&lt;p style=&quot;margin:0px;margin-left:4px;&quot;&gt;&lt;br&gt;&lt;/p&gt;" style="verticalAlign=top;align=left;overflow=fill;html=1;whiteSpace=wrap;" vertex="1" parent="WIyWlLk6GJQsqaUBKTNV-1">
          <mxGeometry x="440" y="-510" width="270" height="80" as="geometry" />
        </mxCell>
        <mxCell id="J9aBu4Wg6RiDO15bJq30-5" value="facturas" style="endArrow=block;endFill=1;html=1;edgeStyle=orthogonalEdgeStyle;align=left;verticalAlign=top;rounded=0;" edge="1" parent="WIyWlLk6GJQsqaUBKTNV-1">
          <mxGeometry x="-0.28" y="-10" relative="1" as="geometry">
            <mxPoint x="620" y="61" as="sourcePoint" />
            <mxPoint x="640" y="150" as="targetPoint" />
            <Array as="points">
              <mxPoint x="620" y="90" />
              <mxPoint x="700" y="90" />
              <mxPoint x="700" y="130" />
              <mxPoint x="640" y="130" />
            </Array>
            <mxPoint as="offset" />
          </mxGeometry>
        </mxCell>
        <mxCell id="J9aBu4Wg6RiDO15bJq30-6" value="1" style="edgeLabel;resizable=0;html=1;align=left;verticalAlign=bottom;" connectable="0" vertex="1" parent="J9aBu4Wg6RiDO15bJq30-5">
          <mxGeometry x="-1" relative="1" as="geometry" />
        </mxCell>
        <mxCell id="J9aBu4Wg6RiDO15bJq30-7" value="*" style="text;html=1;align=center;verticalAlign=middle;resizable=0;points=[];autosize=1;strokeColor=none;fillColor=none;" vertex="1" parent="WIyWlLk6GJQsqaUBKTNV-1">
          <mxGeometry x="650" y="130" width="30" height="30" as="geometry" />
        </mxCell>
      </root>
    </mxGraphModel>
  </diagram>
</mxfile>
